Cover: 
http://www.shotpix.com/images/33002083820966954255.jpg

Info:

Format : AVI
Format/Info : Audio Video Interleave
File size : 705 MiB
Duration : 1h 46mn
Overall bit rate : 923 Kbps
Writing library : VirtualDub build 34807/release

Video
ID : 0
Format : MPEG-4 Visual
Format profile : Advanced Simple@L5
Format settings, BVOP : 4
Format settings, QPel : No
Format settings, GMC : No warppoints
Format settings, Matrix : Default (H.263)
Muxing mode : Packed bitstream
Codec ID : XVID
Codec ID/Hint : XviD
Duration : 1h 46mn
Bit rate : 786 Kbps
Width : 656 pixels
Height : 272 pixels
Display aspect ratio : 2.40:1
Frame rate : 23.976 fps
Color space : YUV
Chroma subsampling : 4:2:0
Bit depth : 8 bits
Scan type : Progressive
Compression mode : Lossy
Bits/(Pixel*Frame) : 0.184
Stream size : 600 MiB (85%)
Writing library : XviD 64

Audio
ID : 1
Format : MPEG Audio
Format version : Version 1
Format profile : Layer 3
Codec ID : 55
Codec ID/Hint : MP3
Duration : 1h 46mn
Bit rate mode : Constant
Bit rate : 128 Kbps
Channel(s) : 2 channels
Sampling rate : 48.0 KHz
Compression mode : Lossy
Stream size : 97.7 MiB (14%)
Alignment : Split accross interleaves
Interleave, duration : 42 ms (1.00 video frame)
Interleave, preload duration : 500 ms
Writing library : LAMELAME


Screens: 
http://www.shotpix.com/images/45049596451414194286.jpg 
http://www.shotpix.com/images/80509361251875576576.jpg 
http://www.shotpix.com/images/23441151288769594707.jpg 
http://www.shotpix.com/images/15886865913154595028.jpg 
http://www.shotpix.com/images/42539764396618555919.jpg 
http://www.shotpix.com/images/80165642408732736235.jpg 
http://www.shotpix.com/images/71268189514754388301.jpg 
http://www.shotpix.com/images/43865645702346962674.jpg




